<?xml version="1.0" standalone="no"?><!DOCTYPE svg PUBLIC "-//W3C//DTD SVG 1.1//EN" "http://www.w3.org/Graphics/SVG/1.1/DTD/svg11.dtd"><svg t="1689783810354" class="icon" viewBox="0 0 1024 1024" version="1.1" xmlns="http://www.w3.org/2000/svg" p-id="3714" xmlns:xlink="http://www.w3.org/1999/xlink" width="128" height="128"><path d="M512.806877 265.528516l-0.691755 1.382487c-0.079818 0-0.159636 0-0.239454 0.001023l-0.729617-1.38658-314.298266 119.726825c-0.435928 0.149403-0.780783 0.292666-1.00898 0.38988l-11.600199 4.849448 1.484817 2.927679c-3.539616 4.443196-5.542226 9.998725-5.542226 15.933901 0 5.944386 2.007727 11.507078 5.556553 15.953344l-1.511423 2.998287 11.6749 4.786003c0.191358 0.079818 0.38374 0.152473 0.581238 0.225127l19.140942 7.297197-16.526395 124.007315c-11.67183 7.30129-18.914792 20.10285-18.914792 34.20401 0 22.286586 18.122753 40.418548 40.398082 40.418548 22.286586 0 40.417525-18.131963 40.417525-40.418548 0-10.209526-3.841491-19.835767-10.719132-27.250644l14.945387-112.073518 27.442002 10.459213L266.595312 678.404937l2.045589 0.483001c2.599198 8.973372 9.942443 15.950274 19.123546 18.024515l0.667196 2.680039 114.988918-28.762067 101.46081 86.990237 2.023076-2.539846c2.651386 0.589424 5.408173 0.733711 8.124028 0.38067l1.792832 3.074012 117.51853-88.134293 116.40108 29.090549 0.602727-2.857071c9.113565-2.192945 16.359596-9.235338 18.850323-18.23634l2.580778-0.453325-39.154765-208.989825 94.105285-35.842323c0.189312-0.068562 0.3776-0.14224 0.566912-0.220011l11.676947-4.878101-1.494027-2.933819c3.535523-4.441149 5.53404-9.992585 5.53404-15.924691 0-5.92392-1.9934-11.467169-5.519714-15.905248l1.546216-3.019777-11.68104-4.78498c-0.228197-0.097214-0.574075-0.240477-1.007957-0.38988L522.36558 269.077342 512.806877 265.528516zM624.594893 614.901625l-0.617054-1.057075-110.805642 83.09451-96.895841-83.040275-0.60989 0.955768-0.063445-0.314155-91.828428 22.966061 18.575054-148.628062 169.571047 64.60132 0.045025 0.11461 172.566264-65.748447 27.960819 149.035338L624.594893 614.901625zM512.095679 498.376725l-233.636155-89.021499 233.636155-89.020476 233.655598 89.020476L512.095679 498.376725zM922.269549 338.844312c-22.422685-53.013401-54.517661-100.618629-95.393627-141.493571s-88.48017-72.969918-141.493571-95.392604C630.48402 78.736249 572.181149 66.963111 512.096702 66.963111S393.709385 78.736249 338.810031 101.957113c-53.013401 22.422685-100.618629 54.517661-141.493571 95.392604s-72.970942 88.48017-95.393627 141.493571c-23.220864 54.898331-34.994002 113.201202-34.994002 173.285648 0 60.07933 11.773138 118.377084 34.994002 173.274392 22.423709 53.012378 54.517661 100.617605 95.392604 141.494595 40.875966 40.876989 88.481194 72.975035 141.493571 95.399767 54.899354 23.222911 113.202225 34.998095 173.286672 34.998095 60.08547 0 118.386294-11.775184 173.287695-34.998095 53.012378-22.424732 100.616582-54.521754 141.493571-95.399767 40.873919-40.876989 72.969918-88.48324 95.392604-141.494595 23.219841-54.897308 34.994002-113.195062 34.994002-173.274392C957.263551 452.04449 945.48939 393.742642 922.269549 338.844312zM512.096702 906.074194c-217.2213 0-393.944234-176.721911-393.944234-393.944234 0-217.2213 176.722934-393.944234 393.944234-393.944234s393.944234 176.722934 393.944234 393.944234C906.039913 729.35126 729.318002 906.074194 512.096702 906.074194z" p-id="3715" fill="#fec50f"></path></svg>